<svg width="112" height="35" viewBox="0 0 112 35" fill="none" xmlns="http://www.w3.org/2000/svg">
<path d="M1.296 35V32.552L3.504 32.024C3.536 30.84 3.552 29.576 3.552 28.232C3.552 26.856 3.552 25.752 3.552 24.92V5.192L0.96 4.712V2.552L12.048 0.391999L12.864 0.919998L12.672 7.592V21.56L20.208 14.36L16.608 13.88V11.624H28.32V13.88L24.096 14.456L20.256 17.912L26.592 31.736L29.616 32.552V35H18.48L13.92 23.72L12.672 24.824C12.672 25.848 12.672 27.048 12.672 28.424C12.672 29.768 12.688 31 12.72 32.12L14.784 32.552V35H1.296ZM35.4675 35V32.168L40.2195 31.592V7.016L36.0435 6.536V3.704H50.2515L56.8755 22.616L63.1155 3.704H76.3155V6.536L73.2435 6.872C73.2115 8.824 73.1955 10.776 73.1955 12.728C73.1955 14.68 73.1955 16.632 73.1955 18.584V20.12C73.1955 22.072 73.1955 24.04 73.1955 26.024C73.1955 27.976 73.2115 29.912 73.2435 31.832L76.5555 32.168V35H60.3315V32.168L63.5955 31.784C63.6595 29.864 63.6755 28.024 63.6435 26.264C63.6435 24.472 63.6595 22.888 63.6915 21.512L63.8355 11.72L56.0115 35H51.7875L43.3875 11.528L43.5795 21.224V31.544L47.5635 32.168V35H35.4675ZM83.7352 35V32.552L85.9432 32.024C85.9752 30.872 85.9912 29.656 85.9912 28.376C85.9912 27.064 85.9912 25.912 85.9912 24.92V21.944C85.9912 21.048 85.9752 20.328 85.9432 19.784C85.9432 19.24 85.9272 18.728 85.8952 18.248C85.8952 17.768 85.8792 17.208 85.8472 16.568L83.2552 16.136V14.168L93.8632 10.856L94.7272 11.384L94.9672 14.696C96.2792 13.16 97.4792 12.136 98.5672 11.624C99.6872 11.112 100.919 10.856 102.263 10.856C104.343 10.856 106.071 11.544 107.447 12.92C108.823 14.264 109.511 16.248 109.511 18.872V24.92C109.511 25.944 109.511 27.112 109.511 28.424C109.511 29.736 109.527 30.968 109.559 32.12L111.575 32.552V35H98.2792V32.552L100.343 32.072C100.375 30.92 100.391 29.688 100.391 28.376C100.391 27.064 100.391 25.912 100.391 24.92V19.496C100.391 18.216 100.215 17.32 99.8632 16.808C99.5432 16.264 98.9992 15.992 98.2312 15.992C97.3352 15.992 96.2952 16.408 95.1112 17.24V24.92C95.1112 25.912 95.1112 27.08 95.1112 28.424C95.1112 29.736 95.1272 30.984 95.1592 32.168L96.9832 32.552V35H83.7352Z" fill="white"/>
</svg>
